<svg xmlns="http://www.w3.org/2000/svg" viewBox="0 0 693.17 723.95"><path d="M709.57,540.46c0,1.6-.53,2.4-1.6,2.4q-7.59,0-23.6-.8t-23.2-.8q-8.79,0-22.4.8-12.79.8-19.6.8c-1.06,0-1.6-.8-1.6-2.4s.54-2.4,1.6-2.4q14.8,0,21.6-2.8t6.8-9.6q0-5.6-5.2-17.2l-35.6-75.6h-95.2l-25.2,59.2q-5.6,13.6-5.6,22,0,12.41,9.8,18.2t29.41,5.8c1.33,0,2,.8,2,2.4s-.67,2.4-2,2.4q-7.22,0-20.81-.8-15.19-.79-26.4-.8-10.39,0-24,.8-12,.8-20,.8c-1.33,0-2-.8-2-2.4s.67-2.4,2-2.4q11.21,0,19-4.2t14.8-14.8q7-10.59,15.41-30.6l84.39-199.2a3.13,3.13,0,0,1,2.8-1.2q2,0,2.4,1.2L662,488.06q13.6,29.59,23.2,39.8t22.8,10.2C709,538.06,709.57,538.86,709.57,540.46Zm-194.8-115.6h88.4l-46.8-98.8Z" transform="translate(-16.4 -5.95)" fill="#939598"/><line x1="271.5" y1="723.75" x2="390.55" y2="447.56" fill="none" stroke="#939598" stroke-miterlimit="10"/><path d="M483.8,433.83c0,.42-.18.63-.41.63H471q-5.18,0-15.75-8.16-9.32,9.54-23.23,9.54a26.19,26.19,0,0,1-11.9-2.41A17,17,0,0,1,413,427.1a16,16,0,0,1-2.35-8.39,17.33,17.33,0,0,1,4.08-11.45,67.16,67.16,0,0,1,11.79-10.52,47.81,47.81,0,0,1-3.34-5.75q-3.33-7.35-3.33-12.53a18,18,0,0,1,2.41-9.15,17.77,17.77,0,0,1,6.79-6.67,19.81,19.81,0,0,1,9.89-2.47,16.68,16.68,0,0,1,9.49,2.65q4,2.64,4,8.74a14.77,14.77,0,0,1-2.24,8.05,25.91,25.91,0,0,1-5.52,6.26c-2.18,1.81-5.12,3.93-8.8,6.39-.53.3-1.34.84-2.41,1.61q7.94,12.76,24.49,25.64a30.55,30.55,0,0,0,4-15.52q0-4.14-1.67-6.21t-6.5-2.07c-.23,0-.36-.23-.4-.69s.1-.69.4-.69l24-.12c.3,0,.46.23.46.69s-.16.69-.46.69a17.33,17.33,0,0,0-5.87.75,5.47,5.47,0,0,0-2.76,2,17.16,17.16,0,0,0-1.61,4,69.41,69.41,0,0,1-7.93,18.4,97.18,97.18,0,0,0,13.11,8.16,44.9,44.9,0,0,0,10.69,4.14C483.7,433.16,483.83,433.41,483.8,433.83Zm-30.08-8.68-2.07-1.73a129.19,129.19,0,0,1-13.28-12,108.57,108.57,0,0,1-11-13.16,30,30,0,0,0-7,7.53,16.48,16.48,0,0,0-2.47,8.91,16.86,16.86,0,0,0,2.47,8.91,17.44,17.44,0,0,0,6.9,6.44,20.49,20.49,0,0,0,9.83,2.36A22.06,22.06,0,0,0,453.72,425.15Zm-21.27-32.66a49.71,49.71,0,0,0,9.72-9.15,15.93,15.93,0,0,0,3.39-9.94c0-3.38-.9-6-2.7-7.94a9.59,9.59,0,0,0-7.31-2.87q-9.07,0-9.08,10.92Q426.47,382.48,432.45,392.49Z" transform="translate(-16.4 -5.95)" fill="#808285" stroke="#939598" stroke-miterlimit="10"/><line x1="433.4" y1="348.16" x2="552.44" y2="71.97" fill="none" stroke="#939598" stroke-miterlimit="10"/><path d="M191.6,195.55a6,6,0,0,1,2.2.4c.66.27,1,.67,1,1.2a373.27,373.27,0,0,0-3.6,52.8c0,2.14-.47,3.67-1.4,4.6s-2.6,1.4-5,1.4H17.2c-.54,0-.8-.8-.8-2.4s.26-2.4.8-2.4q15.19,0,22.2-2t9.6-7.8q2.59-5.79,2.6-17.8V38.35q0-12-2.6-17.6T39.4,13q-7-2.19-22.2-2.2c-.54,0-.8-.8-.8-2.4s.26-2.4.8-2.4H178q3.6,0,3.6,3.6l.8,49.2c0,.8-.67,1.27-2,1.4s-2.14-.2-2.4-1q-1.2-21.19-12.8-33t-30.8-11.8H110q-14,0-20.6,2.2t-9.2,7.6q-2.61,5.4-2.6,16.2v81.2h48.8q19.2,0,27.4-6.4t8.2-21.6c0-.53.8-.8,2.4-.8s2.4.27,2.4.8l-.4,32.4q0,11.61.4,17.6l.4,19.2c0,.54-.8.8-2.4.8s-2.4-.26-2.4-.8q0-17.59-8.6-25.2T125.2,130H77.6v92q0,11.2,2.4,16.4t8.8,7.2q6.39,2,20,2h32q19.2,0,32-13.6t17.2-37.6C190,195.82,190.53,195.55,191.6,195.55Z" transform="translate(-16.4 -5.95)" fill="#939598"/><path d="M399.53,252.82q19.39,18.6,19.4,46.2a72.88,72.88,0,0,1-39,65.4q-18.21,9.81-40.6,9.8-13.2,0-28.8-1.2-5.61-.4-13.2-.8t-16.8-.4l-27.2.4q-7.2.4-20.4.4c-.54,0-.8-.8-.8-2.4s.26-2.4.8-2.4q14.79,0,22-2.2t10-7.8q2.79-5.6,2.8-17.6V155q0-12-2.6-17.6t-9.6-7.8q-7-2.19-21.8-2.2-1.2,0-1.2-2.4t1.2-2.4l19.6.4q16.8.81,27.2.8,7.2,0,13.4-.4t10.6-.8q12.39-1.2,23.2-1.2,33.6,0,50.4,14.6t16.8,38.2a52.22,52.22,0,0,1-12.4,34.2q-12.4,15-34,23.4Q380.12,234.22,399.53,252.82Zm-95.8-123.6a12.61,12.61,0,0,0-7.6,7.6q-2.4,5.81-2.4,19v76l18,.4q29.19,0,43.2-15t14-39.8q0-22.39-12.2-36.2t-37.4-13.8Q308.92,127.42,303.73,129.22Zm73,222.8q14.19-15,14.2-43,0-30.39-17.8-49.2t-49-19.2q-12.81-.39-30.4.8v98.8q0,10.41,3,16t11.6,8.2q8.6,2.61,25,2.6Q362.52,367,376.73,352Z" transform="translate(-16.4 -5.95)" fill="#939598"/></svg>