<svg aria-hidden="true" style="position: absolute; width: 0; height: 0; overflow: hidden;" version="1.1" xmlns="http://www.w3.org/2000/svg" xmlns:xlink="http://www.w3.org/1999/xlink">
<defs>
<symbol id="icon-bookmark" viewBox="0 0 20 20">
<path d="M14 2v17l-4-4-4 4v-17c0-0.553 0.585-1.020 1-1h6c0.689-0.020 1 0.447 1 1z"></path>
</symbol>
<symbol id="icon-chevron-thin-right" viewBox="0 0 20 20">
<path d="M13.25 10l-7.141-7.42c-0.268-0.27-0.268-0.707 0-0.979 0.268-0.27 0.701-0.27 0.969 0l7.83 7.908c0.268 0.271 0.268 0.709 0 0.979l-7.83 7.908c-0.268 0.271-0.701 0.27-0.969 0s-0.268-0.707 0-0.979l7.141-7.417z"></path>
</symbol>
<symbol id="icon-aircraft-take-off" viewBox="0 0 20 20">
<path d="M19.87 6.453c0.119 0.257 0.127 1.29-4.884 3.642l-4.913 2.306c-1.71 0.803-4.191 1.859-5.285 2.151-0.766 0.204-1.497-0.316-1.497-0.316s-2.206-1.975-2.792-2.419c-0.585-0.444-0.535-0.67 0.215-0.91 0.467-0.149 3.13 0.493 4.265 0.78 1.339-0.8 2.562-1.486 3.141-1.798-1.396-1.033-4.008-2.962-4.841-3.55-0.799-0.565 0.010-0.768 0.010-0.768 0.368-0.099 1.162-0.228 1.562-0.144 2.721 0.569 7.263 2.071 7.611 2.186 0.832-0.436 2.128-1.092 2.922-1.465 2.075-0.974 4.327-0.037 4.486 0.305z"></path>
</symbol>
<symbol id="icon-back-in-time" viewBox="0 0 20 20">
<path d="M11 1.799c-4.445 0-8.061 3.562-8.169 7.996v0.205h-2.372l3.594 3.894 3.494-3.894h-2.672v-0.205c0.107-3.303 2.808-5.945 6.125-5.945 3.386 0 6.131 2.754 6.131 6.15s-2.745 6.15-6.131 6.15c-1.357 0-2.611-0.445-3.627-1.193l-1.406 1.504c1.388 1.088 3.135 1.738 5.033 1.738 4.515 0 8.174-3.67 8.174-8.199s-3.659-8.201-8.174-8.201zM10 5v5c0 0.13 0.027 0.26 0.077 0.382s0.124 0.233 0.216 0.325l3.2 3.2c0.283-0.183 0.55-0.389 0.787-0.628l-2.28-2.279v-6h-2z"></path>
</symbol>
<symbol id="icon-chat" viewBox="0 0 20 20">
<path d="M5.8 12.2v-6.2h-3.8c-1.1 0-2 0.9-2 2v6c0 1.1 0.9 2 2 2h1v3l3-3h5c1.1 0 2-0.9 2-2v-1.82c-0.064 0.014-0.132 0.021-0.2 0.021l-7-0.001zM18 1h-9c-1.1 0-2 0.9-2 2v8h7l3 3v-3h1c1.1 0 2-0.899 2-2v-6c0-1.1-0.9-2-2-2z"></path>
</symbol>
<symbol id="icon-cog" viewBox="0 0 20 20">
<path d="M16.783 10c0-1.049 0.646-1.875 1.617-2.443-0.176-0.584-0.407-1.145-0.692-1.672-1.089 0.285-1.97-0.141-2.711-0.883-0.741-0.74-0.968-1.621-0.683-2.711-0.527-0.285-1.088-0.518-1.672-0.691-0.568 0.97-1.595 1.615-2.642 1.615-1.048 0-2.074-0.645-2.643-1.615-0.585 0.173-1.144 0.406-1.671 0.691 0.285 1.090 0.059 1.971-0.684 2.711-0.74 0.742-1.621 1.168-2.711 0.883-0.285 0.527-0.517 1.088-0.691 1.672 0.97 0.568 1.615 1.394 1.615 2.443 0 1.047-0.645 2.074-1.615 2.643 0.175 0.584 0.406 1.144 0.691 1.672 1.090-0.285 1.971-0.059 2.711 0.682s0.969 1.623 0.684 2.711c0.527 0.285 1.087 0.518 1.672 0.693 0.568-0.973 1.595-1.617 2.643-1.617 1.047 0 2.074 0.645 2.643 1.617 0.584-0.176 1.144-0.408 1.672-0.693-0.285-1.088-0.059-1.969 0.683-2.711 0.741-0.74 1.622-1.166 2.711-0.883 0.285-0.527 0.517-1.086 0.692-1.672-0.973-0.569-1.619-1.395-1.619-2.442zM10 13.652c-2.018 0-3.653-1.635-3.653-3.652 0-2.018 1.636-3.654 3.653-3.654s3.652 1.637 3.652 3.654c0 2.018-1.634 3.652-3.652 3.652z"></path>
</symbol>
<symbol id="icon-home" viewBox="0 0 20 20">
<path d="M18.672 11h-1.672v6c0 0.445-0.194 1-1 1h-4v-6h-4v6h-4c-0.806 0-1-0.555-1-1v-6h-1.672c-0.598 0-0.47-0.324-0.060-0.748l8.024-8.032c0.195-0.202 0.451-0.302 0.708-0.312 0.257 0.010 0.513 0.109 0.708 0.312l8.023 8.031c0.411 0.425 0.539 0.749-0.059 0.749z"></path>
</symbol>
<symbol id="icon-key" viewBox="0 0 20 20">
<path d="M17.691 4.725c-0.503-2.977-3.22-4.967-6.069-4.441s-5.256 2.816-4.753 5.795c0.107 0.641 0.408 1.644 0.763 2.365l-5.175 7.723c-0.191 0.285-0.299 0.799-0.242 1.141l0.333 1.971c0.058 0.342 0.372 0.572 0.7 0.514l1.516-0.281c0.328-0.059 0.744-0.348 0.924-0.639l2.047-3.311 0.018-0.022 1.386-0.256 2.39-3.879c0.785 0.139 1.912 0.092 2.578-0.031 2.848-0.526 4.087-3.67 3.584-6.649zM15.166 6.252c-0.784 1.17-1.584 0.346-2.703-0.475-1.119-0.818-2.135-1.322-1.352-2.492s2.326-1.455 3.447-0.635c1.12 0.819 1.391 2.432 0.608 3.602z"></path>
</symbol>
<symbol id="icon-location-pin" viewBox="0 0 20 20">
<path d="M10 2.009c-2.762 0-5 2.229-5 4.99 0 4.774 5 11 5 11s5-6.227 5-11c0-2.76-2.238-4.99-5-4.99zM10 9.76c-1.492 0-2.7-1.209-2.7-2.7s1.208-2.7 2.7-2.7c1.49 0 2.699 1.209 2.699 2.7s-1.209 2.7-2.699 2.7z"></path>
</symbol>
<symbol id="icon-log-out" viewBox="0 0 20 20">
<path d="M19 10l-6-5v3h-7v4h7v3l6-5zM3 3h8v-2h-8c-1.1 0-2 0.9-2 2v14c0 1.1 0.9 2 2 2h8v-2h-8v-14z"></path>
</symbol>
<symbol id="icon-magnifying-glass" viewBox="0 0 20 20">
<path d="M17.545 15.467l-3.779-3.779c0.57-0.935 0.898-2.035 0.898-3.21 0-3.417-2.961-6.377-6.378-6.377s-6.186 2.769-6.186 6.186c0 3.416 2.961 6.377 6.377 6.377 1.137 0 2.2-0.309 3.115-0.844l3.799 3.801c0.372 0.371 0.975 0.371 1.346 0l0.943-0.943c0.371-0.371 0.236-0.84-0.135-1.211zM4.004 8.287c0-2.366 1.917-4.283 4.282-4.283s4.474 2.107 4.474 4.474c0 2.365-1.918 4.283-4.283 4.283s-4.473-2.109-4.473-4.474z"></path>
</symbol>
<symbol id="icon-map" viewBox="0 0 20 20">
<path d="M19.447 3.718l-6-3c-0.281-0.141-0.613-0.141-0.895 0l-5.63 2.815-5.606-1.869c-0.306-0.102-0.64-0.051-0.901 0.138s-0.415 0.49-0.415 0.811v13.001c0 0.379 0.214 0.725 0.553 0.894l6 3c0.141 0.070 0.294 0.106 0.447 0.106s0.307-0.035 0.447-0.106l5.63-2.814 5.606 1.869c0.305 0.1 0.64 0.049 0.901-0.139s0.415-0.49 0.415-0.81v-13.002c0.001-0.379-0.213-0.725-0.552-0.894zM8 5.231l4-2v11.763l-4 2v-11.763zM2 4l4 1.333v11.661l-4-2v-10.994zM18 16.227l-4-1.334v-11.662l4 2v10.996z"></path>
</symbol>
<symbol id="icon-star" viewBox="0 0 20 20">
<path d="M10 1.3l2.388 6.722h6.412l-5.232 3.948 1.871 6.928-5.439-4.154-5.438 4.154 1.87-6.928-5.233-3.948h6.412l2.389-6.722z"></path>
</symbol>
<symbol id="icon-user" viewBox="0 0 20 20">
<path d="M7.725 2.146c-1.016 0.756-1.289 1.953-1.239 2.59 0.064 0.779 0.222 1.793 0.222 1.793s-0.313 0.17-0.313 0.854c0.109 1.717 0.683 0.976 0.801 1.729 0.284 1.814 0.933 1.491 0.933 2.481 0 1.649-0.68 2.42-2.803 3.334-2.13 0.918-4.326 2.073-4.326 4.073v1h18v-1c0-2-2.197-3.155-4.328-4.072-2.123-0.914-2.801-1.684-2.801-3.334 0-0.99 0.647-0.667 0.932-2.481 0.119-0.753 0.692-0.012 0.803-1.729 0-0.684-0.314-0.854-0.314-0.854s0.158-1.014 0.221-1.793c0.065-0.817-0.398-2.561-2.3-3.096-0.333-0.34-0.558-0.881 0.466-1.424-2.24-0.105-2.761 1.067-3.954 1.929z"></path>
</symbol>
<symbol id="icon-linkedin" viewBox="0 0 20 20">
<path d="M5 3c0 1.062-0.71 1.976-2.001 1.976-1.215 0-1.999-0.862-1.999-1.924 0-1.090 0.76-2.052 2-2.052s1.976 0.91 2 2zM1 19v-13h4v13h-4z"></path>
<path d="M7 10.444c0-1.545-0.051-2.836-0.102-3.951h3.594l0.178 1.723h0.076c0.506-0.811 1.746-2 3.822-2 2.532 0 4.432 1.695 4.432 5.342v7.442h-4v-6.861c0-1.594-0.607-2.81-2-2.81-1.062 0-1.594 0.86-1.873 1.569-0.102 0.254-0.127 0.608-0.127 0.963v7.139h-4v-8.556z"></path>
</symbol>
<symbol id="icon-youtube" viewBox="0 0 20 20">
<path d="M10 2.3c-9.828 0-10 0.874-10 7.7s0.172 7.7 10 7.7 10-0.874 10-7.7-0.172-7.7-10-7.7zM13.205 10.334l-4.49 2.096c-0.393 0.182-0.715-0.022-0.715-0.456v-3.948c0-0.433 0.322-0.638 0.715-0.456l4.49 2.096c0.393 0.184 0.393 0.484 0 0.668z"></path>
</symbol>

<symbol id="icon-facebook" viewBox="0 0 32 32">
<path d="M19 6h5v-6h-5c-3.86 0-7 3.14-7 7v3h-4v6h4v16h6v-16h5l1-6h-6v-3c0-0.542 0.458-1 1-1z"></path>
</symbol>

<symbol id="icon-instagram" viewBox="0 0 32 32">
<path d="M16 2.881c4.275 0 4.781 0.019 6.462 0.094 1.563 0.069 2.406 0.331 2.969 0.55 0.744 0.288 1.281 0.638 1.837 1.194 0.563 0.563 0.906 1.094 1.2 1.838 0.219 0.563 0.481 1.412 0.55 2.969 0.075 1.688 0.094 2.194 0.094 6.463s-0.019 4.781-0.094 6.463c-0.069 1.563-0.331 2.406-0.55 2.969-0.288 0.744-0.637 1.281-1.194 1.837-0.563 0.563-1.094 0.906-1.837 1.2-0.563 0.219-1.413 0.481-2.969 0.55-1.688 0.075-2.194 0.094-6.463 0.094s-4.781-0.019-6.463-0.094c-1.563-0.069-2.406-0.331-2.969-0.55-0.744-0.288-1.281-0.637-1.838-1.194-0.563-0.563-0.906-1.094-1.2-1.837-0.219-0.563-0.481-1.413-0.55-2.969-0.075-1.688-0.094-2.194-0.094-6.463s0.019-4.781 0.094-6.463c0.069-1.563 0.331-2.406 0.55-2.969 0.288-0.744 0.638-1.281 1.194-1.838 0.563-0.563 1.094-0.906 1.838-1.2 0.563-0.219 1.412-0.481 2.969-0.55 1.681-0.075 2.188-0.094 6.463-0.094zM16 0c-4.344 0-4.887 0.019-6.594 0.094-1.7 0.075-2.869 0.35-3.881 0.744-1.056 0.412-1.95 0.956-2.837 1.85-0.894 0.888-1.438 1.781-1.85 2.831-0.394 1.019-0.669 2.181-0.744 3.881-0.075 1.713-0.094 2.256-0.094 6.6s0.019 4.887 0.094 6.594c0.075 1.7 0.35 2.869 0.744 3.881 0.413 1.056 0.956 1.95 1.85 2.837 0.887 0.887 1.781 1.438 2.831 1.844 1.019 0.394 2.181 0.669 3.881 0.744 1.706 0.075 2.25 0.094 6.594 0.094s4.888-0.019 6.594-0.094c1.7-0.075 2.869-0.35 3.881-0.744 1.050-0.406 1.944-0.956 2.831-1.844s1.438-1.781 1.844-2.831c0.394-1.019 0.669-2.181 0.744-3.881 0.075-1.706 0.094-2.25 0.094-6.594s-0.019-4.887-0.094-6.594c-0.075-1.7-0.35-2.869-0.744-3.881-0.394-1.063-0.938-1.956-1.831-2.844-0.887-0.887-1.781-1.438-2.831-1.844-1.019-0.394-2.181-0.669-3.881-0.744-1.712-0.081-2.256-0.1-6.6-0.1v0z"></path>
<path d="M16 7.781c-4.537 0-8.219 3.681-8.219 8.219s3.681 8.219 8.219 8.219 8.219-3.681 8.219-8.219c0-4.537-3.681-8.219-8.219-8.219zM16 21.331c-2.944 0-5.331-2.387-5.331-5.331s2.387-5.331 5.331-5.331c2.944 0 5.331 2.387 5.331 5.331s-2.387 5.331-5.331 5.331z"></path>
<path d="M26.462 7.456c0 1.060-0.859 1.919-1.919 1.919s-1.919-0.859-1.919-1.919c0-1.060 0.859-1.919 1.919-1.919s1.919 0.859 1.919 1.919z"></path>
</symbol>

<symbol id="remix" data-name="Layer 1" xmlns="http://www.w3.org/2000/svg" viewBox="0 0 135.39 25.52">
<defs>
<style>
.cls-1{fill:#db2227;}.cls-2{fill:#3953a4;}
</style>
</defs>
<path class="cls-1" d="M18.77,7.59a7.66,7.66,0,0,1-.35,2.32A7.39,7.39,0,0,1,16,13.55a7.46,7.46,0,0,1-1.87,1.13l8.46,10.84H16.21L8.33,15.22H5.88v10.3H.41V0h11a6.94,6.94,0,0,1,2.86.59,7.43,7.43,0,0,1,2.34,1.62,7.61,7.61,0,0,1,1.57,2.41A7.78,7.78,0,0,1,18.77,7.59Zm-8,2.67a2.44,2.44,0,0,0,1.8-.78,2.59,2.59,0,0,0,.75-1.89,2.55,2.55,0,0,0-.75-1.85A2.44,2.44,0,0,0,10.74,5H5.88v5.3Z" transform="translate(-0.41 0)"/>
<path class="cls-1" d="M41.12,5V0H25.17V25.52H36l3.59-5h-9v-6h9.21v-5H30.65V5Z" transform="translate(-0.41 0)"/>
<path class="cls-2" d="M60.69,0,42.26,25.52h7.16L67.78,0Z" transform="translate(-0.41 0)"/><path class="cls-1" d="M90.11,0,81.57,11.77,74.48,2.13l-6.76,9.39v14H73.2V8.93l6.15,8.27h4.36l6.08-8.53V25.52h5.47V0Z" transform="translate(-0.41 0)"/>
<path class="cls-1" d="M107.9,4.6V0H98.61V4.6h1.91V21H98.61v4.57h9.29V21H106V4.6Z" transform="translate(-0.41 0)"/>
<path class="cls-1" d="M126.62,11.77,134.5,0h-6.58l-4.61,6.87L118.7,0h-6.55L120,11.77l-9.21,13.75h6.58l5.91-8.82,5.94,8.82h6.55Z" transform="translate(-0.41 0)"/>
</symbol>

<symbol id="abreviated-logo-backdrop" xmlns="http://www.w3.org/2000/svg" viewBox="0 0 693.17 723.95">
<style>
path {
    fill: inherit;
}
</style>

<path d="M709.57,540.46c0,1.6-.53,2.4-1.6,2.4q-7.59,0-23.6-.8t-23.2-.8q-8.79,0-22.4.8-12.79.8-19.6.8c-1.06,0-1.6-.8-1.6-2.4s.54-2.4,1.6-2.4q14.8,0,21.6-2.8t6.8-9.6q0-5.6-5.2-17.2l-35.6-75.6h-95.2l-25.2,59.2q-5.6,13.6-5.6,22,0,12.41,9.8,18.2t29.41,5.8c1.33,0,2,.8,2,2.4s-.67,2.4-2,2.4q-7.22,0-20.81-.8-15.19-.79-26.4-.8-10.39,0-24,.8-12,.8-20,.8c-1.33,0-2-.8-2-2.4s.67-2.4,2-2.4q11.21,0,19-4.2t14.8-14.8q7-10.59,15.41-30.6l84.39-199.2a3.13,3.13,0,0,1,2.8-1.2q2,0,2.4,1.2L662,488.06q13.6,29.59,23.2,39.8t22.8,10.2C709,538.06,709.57,538.86,709.57,540.46Zm-194.8-115.6h88.4l-46.8-98.8Z" transform="translate(-16.4 -5.95)" fill="#939598"/>
<line x1="271.5" y1="723.75" x2="390.55" y2="447.56" fill="none" stroke="#939598" stroke-miterlimit="10"/>
<path d="M483.8,433.83c0,.42-.18.63-.41.63H471q-5.18,0-15.75-8.16-9.32,9.54-23.23,9.54a26.19,26.19,0,0,1-11.9-2.41A17,17,0,0,1,413,427.1a16,16,0,0,1-2.35-8.39,17.33,17.33,0,0,1,4.08-11.45,67.16,67.16,0,0,1,11.79-10.52,47.81,47.81,0,0,1-3.34-5.75q-3.33-7.35-3.33-12.53a18,18,0,0,1,2.41-9.15,17.77,17.77,0,0,1,6.79-6.67,19.81,19.81,0,0,1,9.89-2.47,16.68,16.68,0,0,1,9.49,2.65q4,2.64,4,8.74a14.77,14.77,0,0,1-2.24,8.05,25.91,25.91,0,0,1-5.52,6.26c-2.18,1.81-5.12,3.93-8.8,6.39-.53.3-1.34.84-2.41,1.61q7.94,12.76,24.49,25.64a30.55,30.55,0,0,0,4-15.52q0-4.14-1.67-6.21t-6.5-2.07c-.23,0-.36-.23-.4-.69s.1-.69.4-.69l24-.12c.3,0,.46.23.46.69s-.16.69-.46.69a17.33,17.33,0,0,0-5.87.75,5.47,5.47,0,0,0-2.76,2,17.16,17.16,0,0,0-1.61,4,69.41,69.41,0,0,1-7.93,18.4,97.18,97.18,0,0,0,13.11,8.16,44.9,44.9,0,0,0,10.69,4.14C483.7,433.16,483.83,433.41,483.8,433.83Zm-30.08-8.68-2.07-1.73a129.19,129.19,0,0,1-13.28-12,108.57,108.57,0,0,1-11-13.16,30,30,0,0,0-7,7.53,16.48,16.48,0,0,0-2.47,8.91,16.86,16.86,0,0,0,2.47,8.91,17.44,17.44,0,0,0,6.9,6.44,20.49,20.49,0,0,0,9.83,2.36A22.06,22.06,0,0,0,453.72,425.15Zm-21.27-32.66a49.71,49.71,0,0,0,9.72-9.15,15.93,15.93,0,0,0,3.39-9.94c0-3.38-.9-6-2.7-7.94a9.59,9.59,0,0,0-7.31-2.87q-9.07,0-9.08,10.92Q426.47,382.48,432.45,392.49Z" transform="translate(-16.4 -5.95)" fill="#808285" stroke="#939598" stroke-miterlimit="10"/>
<line x1="433.4" y1="348.16" x2="552.44" y2="71.97" fill="none" stroke="#939598" stroke-miterlimit="10"/>
<path d="M191.6,195.55a6,6,0,0,1,2.2.4c.66.27,1,.67,1,1.2a373.27,373.27,0,0,0-3.6,52.8c0,2.14-.47,3.67-1.4,4.6s-2.6,1.4-5,1.4H17.2c-.54,0-.8-.8-.8-2.4s.26-2.4.8-2.4q15.19,0,22.2-2t9.6-7.8q2.59-5.79,2.6-17.8V38.35q0-12-2.6-17.6T39.4,13q-7-2.19-22.2-2.2c-.54,0-.8-.8-.8-2.4s.26-2.4.8-2.4H178q3.6,0,3.6,3.6l.8,49.2c0,.8-.67,1.27-2,1.4s-2.14-.2-2.4-1q-1.2-21.19-12.8-33t-30.8-11.8H110q-14,0-20.6,2.2t-9.2,7.6q-2.61,5.4-2.6,16.2v81.2h48.8q19.2,0,27.4-6.4t8.2-21.6c0-.53.8-.8,2.4-.8s2.4.27,2.4.8l-.4,32.4q0,11.61.4,17.6l.4,19.2c0,.54-.8.8-2.4.8s-2.4-.26-2.4-.8q0-17.59-8.6-25.2T125.2,130H77.6v92q0,11.2,2.4,16.4t8.8,7.2q6.39,2,20,2h32q19.2,0,32-13.6t17.2-37.6C190,195.82,190.53,195.55,191.6,195.55Z" transform="translate(-16.4 -5.95)" fill="#939598"/>
<path d="M399.53,252.82q19.39,18.6,19.4,46.2a72.88,72.88,0,0,1-39,65.4q-18.21,9.81-40.6,9.8-13.2,0-28.8-1.2-5.61-.4-13.2-.8t-16.8-.4l-27.2.4q-7.2.4-20.4.4c-.54,0-.8-.8-.8-2.4s.26-2.4.8-2.4q14.79,0,22-2.2t10-7.8q2.79-5.6,2.8-17.6V155q0-12-2.6-17.6t-9.6-7.8q-7-2.19-21.8-2.2-1.2,0-1.2-2.4t1.2-2.4l19.6.4q16.8.81,27.2.8,7.2,0,13.4-.4t10.6-.8q12.39-1.2,23.2-1.2,33.6,0,50.4,14.6t16.8,38.2a52.22,52.22,0,0,1-12.4,34.2q-12.4,15-34,23.4Q380.12,234.22,399.53,252.82Zm-95.8-123.6a12.61,12.61,0,0,0-7.6,7.6q-2.4,5.81-2.4,19v76l18,.4q29.19,0,43.2-15t14-39.8q0-22.39-12.2-36.2t-37.4-13.8Q308.92,127.42,303.73,129.22Zm73,222.8q14.19-15,14.2-43,0-30.39-17.8-49.2t-49-19.2q-12.81-.39-30.4.8v98.8q0,10.41,3,16t11.6,8.2q8.6,2.61,25,2.6Q362.52,367,376.73,352Z" transform="translate(-16.4 -5.95)" fill="#939598"/></symbol>


</defs>
</svg>
